# xmcd CD database file
#
# Track frame offsets:
#	150
#	19332
#	36930
#
# Disc length: 747 seconds
#
# Revision: 0
# Processed by: cddbd v1.5PL3 Copyright (c) Steve Scherf et al.
# Submitted via: CDex 1.51
#
DISCID=1f02e903
DTITLE=illumina - 遠い夜明け 〜art of sky〜
DYEAR=1999
DGENRE=JPop
TTITLE0=遠い夜明け 〜art of sky〜
TTITLE1=Key 〜in silence〜
TTITLE2=遠い夜明け 〜art of sky〜  instrumental
EXTD=YEAR: 1999
EXTT0=
EXTT1=
EXTT2=
PLAYORDER=
